<?xml version="1.0" encoding="UTF-8" standalone="no"?>
<!DOCTYPE svg  PUBLIC '-//W3C//DTD SVG 1.1//EN'  'http://www.w3.org/Graphics/SVG/1.1/DTD/svg11.dtd'>
<svg xmlns="http://www.w3.org/2000/svg" xml:space="preserve" viewBox="0 0 40 40" version="1.1" y="0px" x="0px" xmlns:xlink="http://www.w3.org/1999/xlink" enable-background="new 0 0 40 40">
<g>
        <path fill="gray" d="m37.3 10c-5.5-9.6-17.7-12.8-27.3-7.3s-12.8 17.7-7.3 27.3 17.8 12.8 27.3 7.3c9.6-5.5 12.8-17.7 7.3-27.3z" />
		<path fill="white" d="m37.3 10c-5.5-9.6-17.7-12.8-27.3-7.3s-12.8 17.7-7.3 27.3 17.8 12.8 27.3 7.3c9.6-5.5 12.8-17.7 7.3-27.3zm-9.3 23.9c-7.7 4.4-17.4 1.8-21.9-5.9-4.4-7.6-1.7-17.4 5.9-21.9 7.7-4.4 17.4-1.8 21.9 5.9 4.4 7.7 1.8 17.4-5.9 21.9zm-0.8-14.7l-10.5-6.1c-1.2-0.4-1.4-0.2-1.7 1l0.1 12.1c0.2 1.2 0.6 1.4 1.7 1l10.4-6c0.9-0.7 0.9-1.3 0-2z"/>
</g>
</svg>
